<?xml version="1.0" encoding="UTF-8" standalone="no"?>
<!-- Created with Inkscape (http://www.inkscape.org/) -->

<svg
   width="183.83815mm"
   height="105.47746mm"
   viewBox="0 0 183.83815 105.47746"
   version="1.1"
   id="svg1"
   xmlns="http://www.w3.org/2000/svg"
   xmlns:svg="http://www.w3.org/2000/svg">
  <defs
     id="defs1" />
  <g
     id="layer1"
     transform="translate(-12.278606,-14.816669)">
    <g
       id="layer2">
      <path
         style="fill:#110000;fill-opacity:0.976937;stroke-width:0.264583"
         d="m 66.621044,68.478215 c -22.52564,-8.99236 -5.77529,-5.27439 -25.72631,-2.38675 -9.8863,1.43092 -23.254956,46.841575 1.15879,39.753725 11.23593,-3.26205 54.74945,21.9693 84.935016,12.17689 34.7878,-11.28542 63.4016,-15.0893 61.70124,-26.991835 -3.15017,-22.05113 -21.00108,-28.08894 -21.00108,-28.08894 l -66.69686,12.73996 z"
         id="path1-5" />
      <path
         style="fill:#110000;fill-opacity:0.976937;stroke-width:0.312381"
         d="m 156.41535,66.321738 c 7.04625,-5.728734 21.41003,-9.959923 18.48659,-19.833539 -2.96251,-10.005639 21.03982,0.967139 -1.69305,12.664339 -17.85083,9.185148 -12.36551,0.511832 -0.90895,-4.260321 11.45655,-4.772131 15.93145,-2.206801 15.93145,-2.206801 0,0 5.94169,4.167213 4.00531,6.478484 -7.28122,8.690923 -20.87132,16.373192 -17.10103,3.418321 0.65991,-2.267487 5.89812,-13.984629 7.40142,-5.328486 0.90681,5.22128 12.63738,7.019219 12.63738,7.019219 4.65913,1.886323 -9.35944,7.096545 -11.56721,9.256967 0,0 0.25658,6.420753 -4.61481,0.392026 -4.87136,-6.028728 -22.5771,-7.600209 -22.5771,-7.600209 z"
         id="path6-0-2" />
    </g>
    <path
       style="fill:#950000;fill-opacity:0.977869;stroke-width:0.264583"
       d="m 63.265728,61.977282 c -22.525647,-8.992354 -5.775296,-5.27439 -25.726313,-2.386743 -9.886299,1.430912 -23.254956,46.841581 1.15879,39.753722 11.235932,-3.262045 54.749452,21.969299 84.935015,12.176889 34.7878,-11.28541 63.4016,-15.089296 61.70124,-26.991838 C 182.1843,62.478186 164.33339,56.44038 164.33339,56.44038 L 97.636521,69.180339 Z"
       id="path1" />
    <path
       style="fill:#2b1100;stroke-width:0.219312"
       d="m 137.78632,69.898264 12.14741,11.138973 c 0,0 -0.0441,6.776857 -5.65747,5.098483 -5.61342,-1.678372 -24.51813,-12.644683 -18.38978,-14.945405 6.12836,-2.300725 11.89984,-1.292051 11.89984,-1.292051 z"
       id="path2" />
    <path
       style="fill:#2b1100;stroke-width:0.264583"
       d="m 118.81052,73.270665 13.38818,14.700747 c 0,0 -0.78754,8.137917 -7.35037,5.512782 -6.56284,-2.625133 -28.088933,-17.850911 -20.47605,-19.951017 7.61289,-2.100107 14.43824,-0.262512 14.43824,-0.262512 z"
       id="path2-5" />
    <path
       style="fill:#2b1100;stroke-width:0.148959"
       d="m 154.1304,66.959028 8.29476,7.517314 c 0,0 -0.003,4.603007 -3.82229,3.485362 -3.81929,-1.117646 -16.70292,-8.490838 -12.54969,-10.077837 4.15323,-1.586997 8.07722,-0.924839 8.07722,-0.924839 z"
       id="path2-5-2" />
    <path
       style="fill:#f35e00;fill-opacity:0.977869;stroke-width:0.234032"
       d="m 48.838164,27.587 c 0,0 20.0593,0.413245 18.365813,13.204986 -1.693489,12.791737 18.276452,45.463242 0.747468,30.649317 C 50.42246,56.62738 44.046528,57.030916 51.951549,41.638932 59.856569,26.246951 48.838164,27.587 48.838164,27.587 Z"
       id="path5" />
    <path
       style="fill:#f30022;fill-opacity:0.977869;stroke-width:0.290855"
       d="m 90.98382,14.816669 c 0,0 -21.270887,13.011777 -11.43854,25.680197 9.832348,12.668416 8.868903,60.247254 18.401186,33.364498 C 107.47874,46.978603 114.57493,43.416855 96.446496,31.849433 78.318063,20.282009 90.98382,14.816669 90.98382,14.816669 Z"
       id="path5-6" />
    <path
       style="fill:#f35e00;fill-opacity:0.977869;stroke-width:0.160614"
       d="m 136.993,32.444521 c 0,0 -12.99241,1.914151 -11.74588,11.057848 1.24655,9.143698 -11.31157,34.452959 -0.12669,22.295229 11.18489,-12.157729 15.32083,-12.378104 10.01925,-22.908295 -5.30159,-10.530191 1.85332,-10.444782 1.85332,-10.444782 z"
       id="path5-7" />
    <path
       style="fill:#950000;fill-opacity:0.976471;stroke-width:0.264583"
       d="m 46.46487,73.89752 c -8.169759,-1.802153 -21.983147,-0.241634 -23.266645,-8.104457 -1.30066,-7.967958 -17.50045,7.321855 6.268903,8.366969 18.664734,0.820669 10.697421,-3.543929 -0.853168,-3.281418 -11.55059,0.262515 -14.372609,3.478303 -14.372609,3.478303 0,0 -3.429995,4.760366 -0.930453,5.818014 5.127153,2.169488 14.185526,1.247285 15.828087,-2.995995 0.670792,-1.732878 -10.34396,-7.967461 -8.318752,-1.408692 1.221581,3.956171 -8.05552,8.923138 -8.05552,8.923138 -3.2374899,2.796696 10.656154,2.033295 13.355369,2.854832 0,0 2.231363,4.593986 4.068958,-1.181309 C 32.026635,80.591611 46.46487,73.89752 46.46487,73.89752 Z"
       id="path6" />
    <path
       style="fill:#950000;fill-opacity:0.976471;stroke-width:0.287595"
       d="m 154.23202,65.254866 c 6.48715,-5.274181 19.71122,-9.16964 17.01975,-18.259818 -2.72745,-9.211731 19.37038,0.890396 -1.55872,11.659468 -16.43443,8.456341 -11.38435,0.471216 -0.83682,-3.922277 10.54751,-4.39348 14.66734,-2.031707 14.66734,-2.031707 0,0 5.47024,3.83656 3.68751,5.964447 -6.70348,8.001329 -19.21526,15.074032 -15.74414,3.147085 0.60755,-2.087573 5.43014,-12.874994 6.81416,-4.905686 0.83484,4.806987 11.63465,6.462264 11.63465,6.462264 4.28944,1.736652 -8.61681,6.533459 -10.6494,8.522463 0,0 0.23622,5.911288 -4.24864,0.360921 -4.48484,-5.550374 -20.78569,-6.99716 -20.78569,-6.99716 z"
       id="path6-0" />
  </g>
</svg>
