<?xml version="1.0" encoding="UTF-8"?>
<svg version="1.1" xmlns="http://www.w3.org/2000/svg" width="1024" height="1024">
<path d="M0 0 C337.92 0 675.84 0 1024 0 C1024 337.92 1024 675.84 1024 1024 C686.08 1024 348.16 1024 0 1024 C0 686.08 0 348.16 0 0 Z " fill="none" transform="translate(0,0)"/>
<path d="M0 0 C4.50308172 2.25154086 6.92654928 4.44076462 9 9 C9.47875612 12.55726934 9.55692985 16.10166166 9.625 19.6875 C9.67590006 21.58734483 9.73040753 23.48709752 9.7890625 25.38671875 C9.81540771 26.64295044 9.81540771 26.64295044 9.84228516 27.92456055 C9.87309865 30.06132633 9.87309865 30.06132633 11 32 C11.85380249 31.98428955 11.85380249 31.98428955 12.72485352 31.96826172 C15.3373563 31.92634282 17.94978799 31.90056112 20.5625 31.875 C21.45775391 31.85824219 22.35300781 31.84148437 23.27539062 31.82421875 C30.11253154 31.77412981 35.62925702 31.88146372 40.9375 36.625 C43.64690092 41.05856514 43.73133409 42.88066139 43 48 C39.89203181 53.26583211 36.12618186 54.4197125 30.5625 56.0625 C29.76859863 56.3114502 28.97469727 56.56040039 28.15673828 56.81689453 C25.77561763 57.56012619 23.38852348 58.28097745 21 59 C19.641388 59.42144314 18.28327261 59.8444923 16.92578125 60.26953125 C13.95472401 61.19451387 10.98016585 62.10489718 8 63 C7.85440162 68.46600585 8.34926791 73.3384497 9.5 78.6875 C14.49186771 104.72505867 8.67481128 128.06894354 -5.51953125 150.15625 C-6.00808594 150.7646875 -6.49664063 151.373125 -7 152 C-7.66 152 -8.32 152 -9 152 C-9.25523437 152.88171875 -9.51046875 153.7634375 -9.7734375 154.671875 C-11.02089658 158.05670027 -12.46598491 160.37704765 -14.625 163.25 C-15.33398438 164.19746094 -16.04296875 165.14492188 -16.7734375 166.12109375 C-19.55515857 169.71781029 -22.39770047 173.2616064 -25.26171875 176.79296875 C-27.1282019 179.09945661 -27.1282019 179.09945661 -29.0625 182.125 C-31.16951953 185.25154512 -33.52678732 187.95012234 -36.0390625 190.75390625 C-38.13142954 193.1505418 -40.09037587 195.62868674 -42.0625 198.125 C-46.48446686 203.58923288 -51.35891573 208.50212273 -56.39086914 213.40478516 C-56.97344482 213.97374512 -57.55602051 214.54270508 -58.15625 215.12890625 C-58.68025391 215.63494385 -59.20425781 216.14098145 -59.74414062 216.66235352 C-61.11832833 217.99818294 -61.11832833 217.99818294 -62 220 C-62.66 220 -63.32 220 -64 220 C-64 220.66 -64 221.32 -64 222 C-64.66 222 -65.32 222 -66 222 C-66.20753906 222.53238281 -66.41507813 223.06476563 -66.62890625 223.61328125 C-68.5548525 226.96585434 -71.20266814 229.49708262 -73.9375 232.1875 C-74.51870605 232.76411377 -75.09991211 233.34072754 -75.69873047 233.93481445 C-80.0336469 238.18043043 -84.57479376 242.06331064 -89.33203125 245.83203125 C-92.09881419 248.08029557 -94.70209865 250.44751729 -97.3125 252.875 C-103.58873224 258.63488973 -110.21973327 263.85292302 -117 269 C-117.59828613 269.4552002 -118.19657227 269.91040039 -118.81298828 270.37939453 C-128.55751513 277.75525984 -138.63949276 284.5218939 -149 291 C-149.91918213 291.57548584 -149.91918213 291.57548584 -150.85693359 292.16259766 C-179.63583823 310.06157621 -210.24644638 324.24267426 -242 336 C-243.17143555 336.43441406 -244.34287109 336.86882812 -245.54980469 337.31640625 C-271.75368936 346.92856214 -298.32002597 354.16571788 -326 358 C-327.94712891 358.28810547 -327.94712891 358.28810547 -329.93359375 358.58203125 C-343.73374259 360.2432087 -358.68278688 360.17530829 -372 356 C-373.09183594 355.6596875 -374.18367188 355.319375 -375.30859375 354.96875 C-383.39162333 352.15063839 -390.15521299 348.10391633 -397 343 C-397.70640625 342.47921875 -398.4128125 341.9584375 -399.140625 341.421875 C-405.86235955 336.01169841 -410.84837453 328.85352127 -416 322 C-416.60199219 321.19949219 -417.20398438 320.39898438 -417.82421875 319.57421875 C-418.21222656 319.05472656 -418.60023438 318.53523438 -419 318 C-422.86893664 322.34124839 -426.7338403 326.68564584 -430.5625 331.0625 C-431.40554688 332.02542969 -431.40554688 332.02542969 -432.265625 333.0078125 C-433.49010153 334.41430581 -434.70826404 335.82630805 -435.921875 337.2421875 C-436.54578125 337.96664063 -437.1696875 338.69109375 -437.8125 339.4375 C-438.37582031 340.09621094 -438.93914062 340.75492188 -439.51953125 341.43359375 C-441.98033888 344.03724509 -443.09878861 344.00647794 -446.8125 344.25 C-450.66875189 344.18712633 -452.96115323 343.51790161 -456 341 C-458.92807201 337.26418399 -459.42024108 334.68597588 -459 330 C-457.5390625 327.18359375 -457.5390625 327.18359375 -455.625 324.4375 C-453.27350595 321.02638209 -451.39942991 317.90850879 -450 314 C-450.96099609 313.85304688 -450.96099609 313.85304688 -451.94140625 313.703125 C-457.78018446 312.6937386 -462.1018687 311.36746527 -467 308 C-469 305 -469 305 -469.1875 301.6875 C-467.65957881 296.94290263 -465.52653815 295.73980749 -461.421875 293.1640625 C-458.93150158 291.96707656 -456.72205332 291.41506487 -454 291 C-456.97019214 286.60928118 -460.46137105 284.18599108 -464.87890625 281.4296875 C-466.88751722 280.07581712 -468.46947641 278.87489139 -470 277 C-470.53014007 272.91034801 -470.44984397 270.74973996 -468.3125 267.1875 C-465.80897043 264.81929635 -464.34942276 263.77893552 -461 263 C-455.28725689 263.41508848 -451.05300053 265.09327696 -446.0625 267.6875 C-445.01243774 268.22334717 -445.01243774 268.22334717 -443.94116211 268.77001953 C-431.32763211 275.34473579 -431.32763211 275.34473579 -429 280 C-428.83918945 279.41621582 -428.67837891 278.83243164 -428.51269531 278.23095703 C-427.76432192 275.52731137 -427.00720544 272.8261848 -426.25 270.125 C-425.99734375 269.2071875 -425.7446875 268.289375 -425.484375 267.34375 C-422.92508519 258.25827117 -420.10141746 249.70201736 -414.4375 242.0625 C-414.00622803 241.47331787 -413.57495605 240.88413574 -413.13061523 240.27709961 C-400.91567857 224.00150402 -385.0114505 213.53910792 -365.125 209.0234375 C-364.39034515 208.85369919 -363.65569031 208.68396088 -362.89877319 208.50907898 C-355.60798006 206.85591318 -348.26591399 205.53229303 -340.9072876 204.22305298 C-304.90526557 197.74677129 -269.25135191 188.82121683 -237 171 C-236.33516602 170.6380957 -235.67033203 170.27619141 -234.98535156 169.90332031 C-205.28636667 153.72268433 -177.47585141 133.22452758 -156.296875 106.61328125 C-154.88156799 104.85267343 -153.44290963 103.11305024 -152 101.375 C-142.29434243 89.64517575 -133.12758639 77.53104457 -124.9375 64.6875 C-113.36810237 47.17574928 -94.96085458 31.5096503 -74 27 C-70.00212463 26.44913313 -66.03077111 26.16949366 -62 26 C-61.15308594 25.95875 -60.30617188 25.9175 -59.43359375 25.875 C-47.69698808 25.57357835 -38.07733098 28.45626199 -27.56640625 33.34375 C-24.73480281 34.65875532 -21.91155031 35.8780153 -19 37 C-18.02171076 33.07888947 -17.86722921 29.32461987 -17.76049805 25.31054688 C-17.29334315 9.32416261 -17.29334315 9.32416261 -13 3 C-8.95824826 -0.73671387 -5.27760764 -0.82462619 0 0 Z " fill="#14232B" transform="translate(722,287)"/>
<path d="M0 0 C3.36617446 0.55558219 5.14046541 1.90481488 7.4140625 4.3984375 C9.16690932 7.90413113 8.89382047 11.5678817 8.4140625 15.3984375 C7.26101065 18.56035889 5.68036588 21.37774738 3.9765625 24.2734375 C3.1429784 25.7491239 2.31088277 27.22565237 1.48046875 28.703125 C1.10865479 29.34233887 0.73684082 29.98155273 0.35375977 30.64013672 C-1.98092164 35.00864164 -1.80495079 39.33000481 -1.8359375 44.1484375 C-1.8565625 44.93476563 -1.8771875 45.72109375 -1.8984375 46.53125 C-1.95339517 54.80237938 0.70824531 60.34830375 6.4140625 66.3984375 C8.50333385 68.21859585 10.68260897 69.88220602 12.9140625 71.5234375 C14.02895617 72.35896106 15.14354386 73.19489307 16.2578125 74.03125 C17.82015625 75.20300781 17.82015625 75.20300781 19.4140625 76.3984375 C28.79150836 83.49712258 35.22631832 93.11246662 38.4140625 104.3984375 C39.83754322 122.07178251 34.77943772 134.82573734 23.4140625 148.3984375 C20.5334187 151.2790813 19.02749039 152.29805839 14.9765625 152.9609375 C11.40899134 152.39763679 9.21712764 151.61019126 6.6015625 149.05859375 C4.72906337 146.4407907 4.09280021 144.28510973 3.8984375 141.078125 C4.84295063 136.1695189 7.76863166 132.29048365 10.53125 128.21875 C14.72475177 121.93719756 14.35012275 113.71211308 13.4140625 106.3984375 C10.16316433 96.57382046 -1.67276471 89.05053346 -9.8984375 83.3984375 C-18.44744459 77.10868176 -24.11679697 66.80410509 -26.16015625 56.50390625 C-28.8010536 37.2423155 -21.71769099 20.46350513 -11.5859375 4.3984375 C-8.01575773 -0.09217924 -5.50322529 -0.21103814 0 0 Z " fill="#111E26" transform="translate(432.5859375,252.6015625)"/>
<path d="M0 0 C3.06048212 1.79636994 4.57072503 3.27803755 6.375 6.3125 C7.97761766 13.20375593 5.03248707 18.33072535 1.5625 24 C-4.90815854 34.6719866 -6.53297173 44.05525837 -3.75 56.3125 C-0.54092793 67.71276515 8.00545443 73.97118047 17.125 80.9375 C24.90399246 87.11421571 32.0125594 95.02576393 34 105 C35.80700712 121.92049906 31.84777059 133.36532952 22.37890625 147.1875 C19.16255671 150.99008074 15.98170917 153.57835975 11.0625 154.625 C6.66298011 153.7271388 4.03274518 151.22490259 1 148 C-0.449295 145.10141 -0.33051902 143.23300789 0 140 C1.22382809 137.42227165 2.79863099 135.14272801 4.4375 132.8125 C9.29786273 125.70431255 10.97721224 120.65855499 10 112 C6.04868255 99.40748364 -5.09118217 92.14774662 -15.1875 84.625 C-21.9441892 78.31875674 -25.31969425 70.72817513 -28 62 C-28.19078125 61.40058594 -28.3815625 60.80117188 -28.578125 60.18359375 C-32.38849489 40.46140143 -24.48325995 22.17214934 -14.23779297 5.72558594 C-10.37096673 0.33490983 -6.33032959 -1.2686288 0 0 Z " fill="#121E28" transform="translate(503,214)"/>
<path d="M0 0 C2.86555194 1.33765391 3.85318575 2.47749326 6 5 C7.49031103 9.72537643 7.00836621 12.57093917 4.9453125 16.91796875 C4.02330647 18.6840462 3.08259637 20.44046426 2.125 22.1875 C1.18682984 23.95008399 0.25180571 25.71434702 -0.6796875 27.48046875 C-1.09976074 28.25285889 -1.51983398 29.02524902 -1.95263672 29.82104492 C-5.73742106 37.69498438 -4.82344618 47.64598279 -2.0234375 55.69921875 C1.78692011 64.2652517 8.7798034 69.34315081 16 75 C26.23041164 83.09164963 32.3773934 92.05868527 35 105 C36.26725897 115.9013073 32.70684617 124.49344806 27.25 133.75 C26.84523438 134.47832031 26.44046875 135.20664062 26.0234375 135.95703125 C23.04111006 141.06033068 20.10618548 143.98165118 15 147 C11.85552756 147.79347559 10.34776613 147.59395851 7 147 C3.38093139 143.84294015 2.35328568 142.33551491 1.12890625 137.70703125 C0.97251247 133.20952513 2.37996177 130.79645902 4.875 127.25 C9.88979037 119.77060276 10.93292722 114.03974305 10 105 C8.84118031 101.82493797 7.21250035 99.53503877 5 97 C4.52691406 96.443125 4.05382812 95.88625 3.56640625 95.3125 C0.40389875 91.90550938 -3.10415646 89.12983921 -6.82836914 86.35473633 C-17.97089411 78.05157081 -24.44758846 68.88025706 -27 55 C-28.06070049 43.92777557 -27.76445224 33.16980795 -23 23 C-22.45230957 21.81446533 -22.45230957 21.81446533 -21.89355469 20.60498047 C-20.61908076 17.87060916 -19.31712426 15.15157424 -18 12.4375 C-17.35925537 11.11395508 -17.35925537 11.11395508 -16.70556641 9.76367188 C-16.28710449 8.93287109 -15.86864258 8.10207031 -15.4375 7.24609375 C-15.06496094 6.50029053 -14.69242187 5.7544873 -14.30859375 4.98608398 C-10.71376093 -0.46987964 -6.089407 -1.10620715 0 0 Z " fill="#101E28" transform="translate(372,302)"/>
<path d="M0 0 C1.26895615 -0.00511093 2.53791229 -0.01022186 3.84532166 -0.01548767 C7.31429635 -0.02883952 10.78316184 -0.02946075 14.25215721 -0.02692437 C17.15227966 -0.02585233 20.05238022 -0.03074385 22.95249796 -0.03552979 C29.79533441 -0.04661121 36.63811596 -0.04706971 43.48095703 -0.04101562 C50.53265483 -0.03497261 57.58415326 -0.04729818 64.63581705 -0.06858569 C70.69883954 -0.08621349 76.76179863 -0.09220131 82.82484579 -0.08894795 C86.44229146 -0.08713724 90.05959482 -0.08975021 93.67701721 -0.10366249 C97.71059075 -0.11859613 101.74375928 -0.10926049 105.77734375 -0.09765625 C106.97129257 -0.10529999 108.16524139 -0.11294373 109.39537048 -0.12081909 C119.61275905 -0.05577468 119.61275905 -0.05577468 124.38867188 3.2746582 C127.26895918 6.52421311 128.32271509 8.36775247 128.63867188 12.7121582 C126.84661941 17.81950772 124.05162353 20.55073921 119.38867188 23.2746582 C114.94311359 24.27232158 110.61713564 24.22243297 106.07543945 24.16455078 C104.09600594 24.1805407 104.09600594 24.1805407 102.07658386 24.19685364 C98.47716788 24.22435713 94.87919976 24.20808996 91.27982163 24.18200517 C87.50518519 24.16047296 83.73064509 24.17407737 79.95597839 24.18229675 C73.62186914 24.19044072 67.28833826 24.16985822 60.9543457 24.13232422 C53.63646103 24.08933596 46.31970743 24.09295911 39.00177652 24.1211918 C31.95047803 24.14723681 24.89959903 24.1394078 17.84830284 24.11649132 C14.851889 24.10740252 11.85584414 24.11032315 8.85944557 24.12299538 C4.67688578 24.13894867 0.49613282 24.10546197 -3.6862793 24.06689453 C-4.927435 24.07746887 -6.1685907 24.08804321 -7.44735718 24.09893799 C-15.62899414 23.96709913 -15.62899414 23.96709913 -18.48122597 21.95657921 C-21.13846495 18.85302474 -22.53768256 16.0405721 -22.92382812 12.0246582 C-22.55056163 7.54546027 -21.57435577 5.62755791 -18.61132812 2.2746582 C-12.76041393 -0.57813529 -6.35616802 -0.01318891 0 0 Z " fill="#0E1C25" transform="translate(498.611328125,689.725341796875)"/>
<path d="M0 0 C0.91330078 -0.00191345 1.82660156 -0.0038269 2.76757812 -0.00579834 C4.69401323 -0.00715626 6.6204576 -0.00348732 8.546875 0.00488281 C11.48979311 0.01558787 14.4321008 0.00497416 17.375 -0.0078125 C19.25000134 -0.00649084 21.12500231 -0.0039283 23 0 C23.87720703 -0.00404846 24.75441406 -0.00809692 25.65820312 -0.01226807 C30.00140822 0.02094693 33.61813497 0.07884103 37.5 2.265625 C40.02708329 5.27080512 41.35246032 7.38038692 42 11.265625 C41.22312706 15.92686262 39.13007117 18.95555102 35.46289062 21.90283203 C31.24624294 23.84229539 27.37546068 23.80207057 22.78125 23.8828125 C21.84575317 23.90787872 20.91025635 23.93294495 19.94641113 23.95877075 C17.97306404 24.00763737 15.99952477 24.04921782 14.02587891 24.08398438 C11.00974989 24.14044249 7.99571562 24.22883706 4.98046875 24.3203125 C3.05993861 24.3639063 1.13936505 24.40563567 -0.78125 24.4453125 C-1.68033081 24.47325897 -2.57941162 24.50120544 -3.5057373 24.52999878 C-9.84478566 24.60930871 -13.12413222 23.5130675 -17.8125 19.078125 C-19.99685958 15.4375257 -20.42793285 12.35332917 -19.5 8.265625 C-17.79868799 5.09309645 -15.60091995 2.87237028 -12.41796875 1.11816406 C-8.26212076 -0.09604454 -4.30826341 -0.01988338 0 0 Z " fill="#101D26" transform="translate(419.5,689.734375)"/>
<path d="M0 0 C2.24085755 1.40715268 3.94860505 3.01007663 5.83203125 4.8671875 C8.28399292 7.27938762 10.88343944 9.40609382 13.5625 11.5625 C25.7462588 21.49251761 25.7462588 21.49251761 27 24 C27.50866466 30.10397596 27.05703618 33.10769166 23 38 C19.51694405 39.74152798 15.80073127 39.57707438 12 39 C9.375 36.9375 9.375 36.9375 7 34 C3.16760124 29.61720354 -0.49039283 26.56697695 -5.6875 23.875 C-13.09712099 19.98698459 -13.09712099 19.98698459 -15 16 C-15.76839828 11.00954235 -15.79544727 7.29923054 -13.125 2.9375 C-9.16128124 -0.67647887 -5.18733857 -0.99563434 0 0 Z " fill="#E4E6E2" transform="translate(564,447)"/>
<path d="M0 0 C4.22638313 2.41507607 7.04954829 6.31327211 10.171875 9.9921875 C11.88731543 11.87623959 13.63505775 13.41669812 15.625 15 C19.92268374 18.60733183 23.57197896 22.58724559 24.29296875 28.3359375 C24.09845066 32.6729704 23.2894043 34.64547973 20.5 38.0625 C17.30261238 40.18143384 14.33457925 41.20161473 10.484375 41.0078125 C5.6857034 39.06118157 2.8729622 34.40374754 -0.21484375 30.41015625 C-3.28631823 26.49286653 -6.89339779 23.60854609 -10.90625 20.68359375 C-13.08164599 18.9343481 -14.54468568 17.37975927 -16 15 C-16.50541498 9.69314269 -16.51553035 6.26885828 -13 2 C-8.78205627 -0.5541493 -4.80965284 -0.67595121 0 0 Z " fill="#E4E7E2" transform="translate(456,508)"/>
<path d="M0 0 C5.42244257 1.56172688 8.82482745 5.84137125 12.671875 9.76953125 C14.64329901 11.52824898 16.62244378 13.27835205 18.609375 15.01953125 C23.11209165 18.9845134 26.38966372 22.13555935 27.046875 28.26953125 C26.54422162 32.96096276 24.96188281 35.47952344 21.671875 38.76953125 C17.69270413 39.44942555 13.48190416 39.69363896 9.8203125 37.82421875 C7.48396765 35.9191991 5.65624271 33.74865458 3.85546875 31.34375 C0.79873613 27.7401958 -2.87237536 25.45481187 -6.76953125 22.83203125 C-10.07143365 20.17034504 -11.92396976 17.70610845 -12.796875 13.5234375 C-12.85261175 9.61489804 -12.66726934 6.52039619 -10.453125 3.20703125 C-6.73007713 0.30305391 -4.65529974 -0.29612114 0 0 Z " fill="#E2E6E4" transform="translate(511.328125,481.23046875)"/>
<path d="M0 0 C2.375 2 2.375 2 5 5 C9.45041955 8.77980839 14.01938481 12.38094675 18.875 15.625 C22.3147805 18.23923318 24.18617604 20.07004808 26 24 C26.17747091 28.70297914 25.6231928 32.0652108 23 36 C19.27251673 37.24249442 15.87180664 37.52998114 12 37 C8.65178794 35.22741714 6.37339685 33.40540229 3.8125 30.625 C0.40143131 27.44133589 -3.22613792 25.60660778 -7.37890625 23.52734375 C-11.25612043 21.26804309 -13.569311 19.29206701 -15 15 C-15.40159538 11.93640096 -15.49323558 9.0559161 -15 6 C-10.76735785 0.65350465 -6.80798082 -1.14129893 0 0 Z " fill="#E1E4E0" transform="translate(611,404)"/>
<path d="M0 0 C5.68870253 3.61719953 9.10559395 8.67784542 12.375 14.4375 C13.03048828 15.52514648 13.03048828 15.52514648 13.69921875 16.63476562 C16.27039772 21.06467614 17.8260423 24.76838315 18 30 C16.38468306 33.17080732 14.94910997 35.27234902 12.125 37.4375 C8.88819102 38.29430238 7.22156186 38.05320292 4 37 C-1.15006555 33.37082957 -5.36778168 28.70842211 -9.39453125 23.8984375 C-10.9390999 22.02101354 -10.9390999 22.02101354 -12.51171875 20.4765625 C-15.86970299 16.99349576 -16.97550019 13.89603747 -17.26953125 9.18359375 C-16.7045624 4.60652731 -13.68647735 2.337551 -10.1875 -0.4375 C-6.61595637 -1.35589693 -3.46480795 -1.102346 0 0 Z " fill="#E2E5E0" transform="translate(400,528)"/>
<path d="M0 0 C1.28648437 -0.01675781 2.57296875 -0.03351562 3.8984375 -0.05078125 C8.98802988 0.44537398 12.23874377 2.10396892 16.0625 5.4375 C18.31836473 9.5882911 17.88321019 12.8397657 16.625 17.3125 C14.71568037 20.63613046 13.48747974 21.95439438 9.953125 23.421875 C6.20958041 24.42366862 2.93526338 24.6132762 -0.9375 24.625 C-2.21753906 24.64175781 -3.49757813 24.65851562 -4.81640625 24.67578125 C-8.57103058 24.2924881 -10.41009908 23.59277834 -13.375 21.3125 C-16.24854956 16.95263171 -17.11528479 13.49449355 -16.375 8.3125 C-12.35654469 1.34398821 -7.66989714 0.02296376 0 0 Z " fill="#0C1B24" transform="translate(612.375,602.6875)"/>
<path d="M0 0 C3.58857173 2.82504583 4.74303811 4.35228823 5.4453125 8.85546875 C5.62393246 13.64843774 5.40941467 17.11818378 3.375 21.5 C-0.34044899 25.41099893 -3.69930332 27.98808289 -9.0625 28.9375 C-14.18277017 29.01877413 -16.16509655 27.76937119 -19.75 24.3125 C-22.33695049 19.52664158 -22.40376844 15.46366059 -21 10.375 C-18.07359237 5.43668712 -14.44398321 2.40529035 -9.5 -0.4375 C-5.91389445 -1.24437375 -3.54107293 -1.01173512 0 0 Z " fill="#E3E5E2" transform="translate(653,352)"/>
<path d="M0 0 C3.09920128 1.63412431 5.21555069 3.00160998 7.375 5.75 C8.7995825 10.87849698 8.68050206 14.61282273 6.375 19.3125 C3.6422424 22.40483097 1.93682468 23.73724492 -2 25 C-6.85233076 25.287481 -10.67369103 24.66217818 -14.5 21.5625 C-18.54291795 17.4185091 -18.39574667 14.32924271 -18.3515625 8.703125 C-18 6 -18 6 -15.75 2.9375 C-10.16035483 -1.00065909 -6.65996331 -1.60439324 0 0 Z " fill="#121C24" transform="translate(662,584)"/>
<path d="M0 0 C2.91833317 1.47646896 4.51291212 3.08922721 6 6 C7.05779615 10.4123141 7.07030762 14.20318054 4.7109375 18.1640625 C2.20337313 21.16572822 0.08663281 23.66426886 -3.91796875 24.30859375 C-8.62920205 24.57618531 -11.33499573 24.24366823 -15 21.125 C-17.93117832 18.31595411 -18.93561448 16.8531081 -19.25 12.6875 C-18.88953578 7.37065273 -17.34084156 5.21002775 -13.4375 1.6875 C-8.8234146 -0.57759647 -5.04422312 -1.04475819 0 0 Z " fill="#E2E7E3" transform="translate(353,533)"/>
<path d="M0 0 C0.66 0.33 1.32 0.66 2 1 C1.54177532 4.46941546 1.10868317 7.67395049 0 11 C0 10.34 0 9.68 0 9 C-2.93794397 10.76276638 -3.93807122 11.85549952 -5.3125 15.0625 C-6.30979246 17.9131423 -6.30979246 17.9131423 -5 20 C-6.25 21.5 -6.25 21.5 -8 23 C-9.32 23 -10.64 23 -12 23 C-12.67667998 24.24460783 -13.34094719 25.49596896 -14 26.75 C-14.556875 27.79414063 -14.556875 27.79414063 -15.125 28.859375 C-16.25224649 31.23167757 -16.25224649 31.23167757 -16 35 C-16.66 35 -17.32 35 -18 35 C-18.33 34.34 -18.66 33.68 -19 33 C-19.66 33.99 -20.32 34.98 -21 36 C-21.66 35.67 -22.32 35.34 -23 35 C-22.62488281 34.52691406 -22.24976563 34.05382812 -21.86328125 33.56640625 C-18.03685595 28.62193225 -14.89656376 23.53679445 -12 18 C-11.34 18 -10.68 18 -10 18 C-9.75507812 17.31550781 -9.51015625 16.63101562 -9.2578125 15.92578125 C-7.77245937 12.47072071 -5.87594838 9.3586143 -3.875 6.1875 C-3.31619141 5.2912793 -3.31619141 5.2912793 -2.74609375 4.37695312 C-1.8342952 2.91573749 -0.91764024 1.45755415 0 0 Z " fill="#E0E9EF" transform="translate(725,421)"/>
<path d="M0 0 C3.33136597 1.42353524 5.27664757 3.1335313 7.625 5.875 C8.21539062 6.55304688 8.80578125 7.23109375 9.4140625 7.9296875 C13.94885961 13.84949654 13.82798989 19.73208871 13 27 C11.31414557 31.92323227 8.69807235 35.99167327 5.75 40.25 C3.84427309 43.24471371 3.33381096 45.49498488 3 49 C2.67 49 2.34 49 2 49 C2 45.7 2 42.4 2 39 C2.66 39 3.32 39 4 39 C4.2475 38.05125 4.495 37.1025 4.75 36.125 C6 33 6 33 10 31 C10 24.4 10 17.8 10 11 C8.68 10.67 7.36 10.34 6 10 C5.27095914 8.35965807 4.61344757 6.68698082 4 5 C2.71332828 3.29705213 1.38903267 1.62053812 0 0 Z " fill="#E9EAEA" transform="translate(370,393)"/>
<path d="M0 0 C0.66 0 1.32 0 2 0 C2.75335397 10.68088521 1.20162871 17.58211034 -5.375 26.0625 C-7.67037719 30.2118357 -7.22870707 33.50327345 -6 38 C-4.61481356 40.49807812 -4.61481356 40.49807812 -3 42 C-5.46800047 40.84826645 -7.04783565 39.95216435 -9 38 C-10.17320538 32.23174022 -9.95635423 28.5238237 -8 23 C-7.34 23 -6.68 23 -6 23 C-5.67 21.35 -5.34 19.7 -5 18 C-4.34 18 -3.68 18 -3 18 C-3 17.34 -3 16.68 -3 16 C-2.34 16 -1.68 16 -1 16 C-1.01160156 15.09636719 -1.02320313 14.19273437 -1.03515625 13.26171875 C-1.04417969 12.08222656 -1.05320312 10.90273438 -1.0625 9.6875 C-1.07990234 7.92986328 -1.07990234 7.92986328 -1.09765625 6.13671875 C-1 3 -1 3 0 0 Z " fill="#E9ECE8" transform="translate(445,362)"/>
<path d="M0 0 C0 3.43671236 -0.58704254 4.22924863 -2.4921875 6.9921875 C-3.0279541 7.77408447 -3.5637207 8.55598145 -4.11572266 9.36157227 C-4.69628418 10.19100342 -5.2768457 11.02043457 -5.875 11.875 C-6.46200684 12.7218335 -7.04901367 13.56866699 -7.65380859 14.44116211 C-21.13153063 33.75435375 -21.13153063 33.75435375 -26 37 C-24.52307692 30.35384615 -24.52307692 30.35384615 -21.875 28.5625 C-21.25625 28.376875 -20.6375 28.19125 -20 28 C-20 27.01 -20 26.02 -20 25 C-19.34 25 -18.68 25 -18 25 C-17.67 23.68 -17.34 22.36 -17 21 C-16.34 21 -15.68 21 -15 21 C-15 20.34 -15 19.68 -15 19 C-14.34 18.67 -13.68 18.34 -13 18 C-12.62875 16.948125 -12.62875 16.948125 -12.25 15.875 C-10.53129097 11.92196924 -7.85604448 9.18424519 -5 6 C-4.03634825 4.85863585 -3.07754357 3.71315092 -2.125 2.5625 C-1.42375 1.716875 -0.7225 0.87125 0 0 Z " fill="#E6EAE3" transform="translate(602,343)"/>
<path d="M0 0 C-0.58352134 3.43791716 -1.71277969 5.08857189 -4.16796875 7.53125 C-4.81443359 8.17707031 -5.46089844 8.82289063 -6.12695312 9.48828125 C-6.80693359 10.15214844 -7.48691406 10.81601562 -8.1875 11.5 C-8.84814453 12.16386719 -9.50878906 12.82773437 -10.18945312 13.51171875 C-13.90053212 17.18249975 -17.54142908 20.28186656 -22 23 C-22.33 22.01 -22.66 21.02 -23 20 C-21.90081184 19.01524786 -20.7954398 18.03739527 -19.6875 17.0625 C-19.07261719 16.51722656 -18.45773437 15.97195313 -17.82421875 15.41015625 C-16 14 -16 14 -13 13 C-12.71125 12.4225 -12.4225 11.845 -12.125 11.25 C-10.60933085 8.2186617 -8.44500433 6.32857555 -6 4 C-5.278125 3.236875 -4.55625 2.47375 -3.8125 1.6875 C-2 0 -2 0 0 0 Z " fill="#E3E7E3" transform="translate(557,402)"/>
<path d="M0 0 C2.0625 0.4375 2.0625 0.4375 4 1 C3.3503125 1.5878125 3.3503125 1.5878125 2.6875 2.1875 C-1.0745397 6.2282093 -2.37957733 9.69647676 -2.73046875 15.17578125 C-2.81103516 16.33271484 -2.89160156 17.48964844 -2.97460938 18.68164062 C-3.04486328 19.87982422 -3.11511719 21.07800781 -3.1875 22.3125 C-3.26935547 23.53001953 -3.35121094 24.74753906 -3.43554688 26.00195312 C-3.63546593 29.0007389 -3.82318024 31.99977823 -4 35 C-4.66 35 -5.32 35 -6 35 C-6.33 35.66 -6.66 36.32 -7 37 C-6.84144531 36.03707031 -6.68289063 35.07414062 -6.51953125 34.08203125 C-5.99514352 30.42784772 -5.85971265 26.82095978 -5.75976562 23.13427734 C-5.23099167 5.23099167 -5.23099167 5.23099167 0 0 Z " fill="#131D23" transform="translate(710,289)"/>
<path d="M0 0 C0.66 0.66 1.32 1.32 2 2 C0.95042114 2.05945801 0.95042114 2.05945801 -0.12036133 2.12011719 C-3.3523479 2.31300799 -6.58215682 2.53136425 -9.8125 2.75 C-10.91271484 2.811875 -12.01292969 2.87375 -13.14648438 2.9375 C-19.90681758 3.41610766 -25.52226697 4.59181411 -31.7644043 7.26660156 C-34 8 -34 8 -37 7 C-34 5 -34 5 -31 5 C-31 4.34 -31 3.68 -31 3 C-30.05125 2.855625 -29.1025 2.71125 -28.125 2.5625 C-25.1065506 2.17064601 -25.1065506 2.17064601 -23 1 C-15.42696705 0.25010309 -7.60402182 -0.4472954 0 0 Z " fill="#E0E6E2" transform="translate(671,311)"/>
<path d="M0 0 C1.08200231 3.24600693 0.8640714 3.87670342 0 7 C-0.08797596 8.33507672 -0.13057963 9.67374841 -0.1328125 11.01171875 C-0.13474609 11.76598145 -0.13667969 12.52024414 -0.13867188 13.29736328 C-0.13416016 14.0861084 -0.12964844 14.87485352 -0.125 15.6875 C-0.12306641 16.49171387 -0.12113281 17.29592773 -0.11914062 18.12451172 C-0.08007153 23.48240363 0.21386118 28.69356297 1 34 C-1.2477975 31.94766315 -2.0022242 30.99332739 -3 28 C-3.08239169 26.15389468 -3.10743359 24.30494836 -3.09765625 22.45703125 C-3.09443359 21.38388672 -3.09121094 20.31074219 -3.08789062 19.20507812 C-3.07951172 18.08552734 -3.07113281 16.96597656 -3.0625 15.8125 C-3.05798828 14.68134766 -3.05347656 13.55019531 -3.04882812 12.38476562 C-3.03703498 9.58979073 -3.0205765 6.7949218 -3 4 C-2.34 4 -1.68 4 -1 4 C-0.67 2.68 -0.34 1.36 0 0 Z " fill="#E9E8E5" transform="translate(475,247)"/>
<path d="M0 0 C0.66 0.33 1.32 0.66 2 1 C1.56131592 1.91495239 1.56131592 1.91495239 1.11376953 2.84838867 C-0.21747025 5.62730551 -1.54625683 8.40738859 -2.875 11.1875 C-3.33519531 12.14720703 -3.79539062 13.10691406 -4.26953125 14.09570312 C-4.71425781 15.02705078 -5.15898437 15.95839844 -5.6171875 16.91796875 C-6.02565918 17.77156982 -6.43413086 18.6251709 -6.85498047 19.50463867 C-7.98834406 21.974598 -9.01278002 24.46851422 -10 27 C-10.99 26.67 -11.98 26.34 -13 26 C-11.68 22.7 -10.36 19.4 -9 16 C-8.34 16 -7.68 16 -7 16 C-6.87625 15.113125 -6.7525 14.22625 -6.625 13.3125 C-5.72018659 8.51698894 -4.62382785 5.30871239 -1 2 C-0.67 1.34 -0.34 0.68 0 0 Z " fill="#DFE2DB" transform="translate(418,259)"/>
<path d="M0 0 C1.18851562 0.00902344 2.37703125 0.01804687 3.6015625 0.02734375 C4.51679688 0.03894531 5.43203125 0.05054688 6.375 0.0625 C6.375 1.0525 6.375 2.0425 6.375 3.0625 C7.035 3.0625 7.695 3.0625 8.375 3.0625 C8.375 3.7225 8.375 4.3825 8.375 5.0625 C9.035 5.0625 9.695 5.0625 10.375 5.0625 C10.045 6.0525 9.715 7.0425 9.375 8.0625 C8.570625 7.2375 7.76625 6.4125 6.9375 5.5625 C3.5392066 2.7292435 0.76935551 2.38480187 -3.578125 2.6328125 C-6.57892861 3.26275219 -7.82673405 4.64175738 -9.625 7.0625 C-10.625 8.0625 -11.625 9.0625 -12.625 10.0625 C-11.97889319 6.57352321 -10.60628683 3.99480451 -8.625 1.0625 C-5.74084117 -0.37957941 -3.20778472 -0.03144887 0 0 Z " fill="#ECEEEC" transform="translate(368.625,299.9375)"/>
<path d="M0 0 C0 3 0 3 -2.5 5.6875 C-3.325 6.450625 -4.15 7.21375 -5 8 C-5.66 7.67 -6.32 7.34 -7 7 C-4.69 4.69 -2.38 2.38 0 0 Z M-8 8 C-7.41015625 9.875 -7.41015625 9.875 -7 12 C-9.97403891 16.13779327 -14.48573222 17.9400914 -19 20 C-17.49650623 16.33213607 -15.36271208 14.31089607 -12.375 11.75 C-11.14910156 10.69039062 -11.14910156 10.69039062 -9.8984375 9.609375 C-9.27195312 9.07828125 -8.64546875 8.5471875 -8 8 Z " fill="#E4EDEF" transform="translate(651,515)"/>
<path d="M0 0 C4.04525307 7.4446254 4.3180382 15.69566932 4 24 C0.22705879 20.22705879 0.0587856 14.63864856 -0.125 9.515625 C-0.125 6.34120244 -0.08827811 3.17310757 0 0 Z " fill="#0A1217" transform="translate(728,354)"/>
<path d="M0 0 C0.99 0 1.98 0 3 0 C2.4448045 4.27192092 0.95228987 6.86742146 -1.5 10.375 C-4.40238807 14.76122655 -5.88349105 17.75709722 -6 23 C-7.41377341 20.36095629 -8.37240135 17.92879371 -9 15 C-8.01 15 -7.02 15 -6 15 C-5.855625 14.401875 -5.71125 13.80375 -5.5625 13.1875 C-4.30136986 8.28310502 -4.30136986 8.28310502 -1.9375 6.0625 C0.45645031 3.98573593 0.45645031 3.98573593 0 0 Z " fill="#EAE9E9" transform="translate(269,601)"/>
<path d="M0 0 C0.33 0 0.66 0 1 0 C1 8.58 1 17.16 1 26 C-2 23 -2 23 -2.37231445 20.76342773 C-2.3693335 19.91208252 -2.36635254 19.0607373 -2.36328125 18.18359375 C-2.36263672 17.25482422 -2.36199219 16.32605469 -2.36132812 15.36914062 C-2.34521484 14.40169922 -2.32910156 13.43425781 -2.3125 12.4375 C-2.31572266 11.46619141 -2.31894531 10.49488281 -2.32226562 9.49414062 C-2.26702009 2.26702009 -2.26702009 2.26702009 0 0 Z " fill="#E7EAE6" transform="translate(406,287)"/>
<path d="M0 0 C0.99 0.33 1.98 0.66 3 1 C2.67 1.99 2.34 2.98 2 4 C1.01 4 0.02 4 -1 4 C-3.47599051 6.17587045 -5.16394632 8.24591949 -7 11 C-7.97850195 12.02104551 -8.97980427 13.0206121 -10 14 C-10.556875 14.556875 -11.11375 15.11375 -11.6875 15.6875 C-12.120625 16.120625 -12.55375 16.55375 -13 17 C-13.66 16.67 -14.32 16.34 -15 16 C-10.23991693 10.4069024 -5.25404324 5.13122145 0 0 Z " fill="#DFECEE" transform="translate(674,491)"/>
<path d="M0 0 C0.66 0.33 1.32 0.66 2 1 C1.04882866 2.1725131 0.08882991 3.33787015 -0.875 4.5 C-1.67550781 5.47453125 -1.67550781 5.47453125 -2.4921875 6.46875 C-2.98976563 6.9740625 -3.48734375 7.479375 -4 8 C-4.66 8 -5.32 8 -6 8 C-6.20625 8.7425 -6.4125 9.485 -6.625 10.25 C-8.97685636 14.95371272 -13.44221698 16.76056981 -18 19 C-12.44964797 12.21623641 -6.23557973 6.14477032 0 0 Z " fill="#071113" transform="translate(559,402)"/>
<path d="M0 0 C4.75481646 0.57634139 7.97048212 2.55068521 12 5 C12 5.66 12 6.32 12 7 C15.58327753 8.00217064 15.58327753 8.00217064 19 7 C19 8.65 19 10.3 19 12 C14.46463751 10.41305672 10.68503997 8.0435173 6.6875 5.4375 C6.04232422 5.02564453 5.39714844 4.61378906 4.73242188 4.18945312 C3.13495169 3.15659145 1.56465902 2.08192254 0 1 C0 0.67 0 0.34 0 0 Z " fill="#E4EAEC" transform="translate(274,553)"/>
<path d="M0 0 C0 0.66 0 1.32 0 2 C-2.8937133 2.84137043 -5.78959397 3.6733036 -8.6875 4.5 C-9.50412109 4.73847656 -10.32074219 4.97695313 -11.16210938 5.22265625 C-15.19171125 6.36464868 -18.76504847 7.34500623 -23 7 C-23 6.34 -23 5.68 -23 5 C-21.7625 4.731875 -20.525 4.46375 -19.25 4.1875 C-14.30630317 3.09501374 -9.40603597 1.85059932 -4.50390625 0.5859375 C-2 0 -2 0 0 0 Z " fill="#E4E8E0" transform="translate(437,477)"/>
<path d="M0 0 C0.33 0 0.66 0 1 0 C1.45452339 5.68154235 0.66636232 8.60036521 -3 13 C-3.99 13.33 -4.98 13.66 -6 14 C-6 14.66 -6 15.32 -6 16 C-6.66 16 -7.32 16 -8 16 C-6.57250019 12.20950293 -4.83763458 8.72877544 -2.875 5.1875 C-2.33617187 4.21167969 -1.79734375 3.23585938 -1.2421875 2.23046875 C-0.83226562 1.49441406 -0.42234375 0.75835937 0 0 Z " fill="#DFE7F0" transform="translate(469,379)"/>
<path d="M0 0 C0.66 0 1.32 0 2 0 C3.69255192 5.07765576 3.61250636 9.37685815 1.75 14.3125 C0.04644494 16.92867384 -1.36833584 18.36655328 -4 20 C-4.66 19.67 -5.32 19.34 -6 19 C-5.566875 18.63390625 -5.13375 18.2678125 -4.6875 17.890625 C-1.7145316 15.00023905 -0.13573231 13.0685593 0.3984375 8.86328125 C0.37731586 5.88865076 0.26269149 2.96257626 0 0 Z " fill="#081013" transform="translate(358,537)"/>
<path d="M0 0 C1.32 0.33 2.64 0.66 4 1 C1.7516034 2.46085662 -0.49862173 3.91875136 -2.75 5.375 C-3.38421875 5.7875 -4.0184375 6.2 -4.671875 6.625 C-12.99445565 12 -12.99445565 12 -18 12 C-16.5908348 9.1816696 -14.91498368 9.1073681 -12 8 C-10.06849488 7.0289701 -8.15179672 6.02799823 -6.25 5 C-4.80367188 4.2265625 -4.80367188 4.2265625 -3.328125 3.4375 C-0.88683966 2.21208835 -0.88683966 2.21208835 0 0 Z " fill="#E6EAE3" transform="translate(501,446)"/>
<path d="M0 0 C3.61249365 2.52874556 4.44625031 5.02896902 5.25 9.1875 C6.01494683 14.17978458 6.1653166 18.95784376 6 24 C5.34 24.33 4.68 24.66 4 25 C3.87882813 23.94941406 3.75765625 22.89882813 3.6328125 21.81640625 C2.75978794 14.43873394 1.8049811 7.2199244 0 0 Z " fill="#E5E8E8" transform="translate(534,310)"/>
<path d="M0 0 C0.33 0 0.66 0 1 0 C1.3921405 3.01948187 1.76408265 6.03926024 2.125 9.0625 C2.23714844 9.91005859 2.34929688 10.75761719 2.46484375 11.63085938 C3.08902562 17.01962955 2.87060217 20.8939489 1 26 C0.67 26 0.34 26 0 26 C0 17.42 0 8.84 0 0 Z " fill="#D7E0E2" transform="translate(733,372)"/>
<path d="M0 0 C3.33136597 1.42353524 5.27664757 3.1335313 7.625 5.875 C8.21539062 6.55304688 8.80578125 7.23109375 9.4140625 7.9296875 C10.92968837 9.90821388 12.06217465 11.69371522 13 14 C12.625 16.25 12.625 16.25 12 18 C11.67 18 11.34 18 11 18 C10.67 15.69 10.34 13.38 10 11 C9.38125 10.938125 8.7625 10.87625 8.125 10.8125 C7.42375 10.544375 6.7225 10.27625 6 10 C5.27095914 8.35965807 4.61344757 6.68698082 4 5 C2.71332828 3.29705213 1.38903267 1.62053812 0 0 Z " fill="#E0E4E4" transform="translate(370,393)"/>
<path d="M0 0 C0.33 0 0.66 0 1 0 C1.51050988 4.21170647 0.284316 6.48182331 -1.91015625 10.01953125 C-3.81257392 13.47661282 -4.87234217 17.23259769 -6 21 C-6.33 21 -6.66 21 -7 21 C-7.42596145 15.08978493 -6.25707786 11.5923042 -3.5 6.5625 C-3.16613281 5.92634766 -2.83226562 5.29019531 -2.48828125 4.63476562 C-1.67159878 3.08306893 -0.8375666 1.54052429 0 0 Z " fill="#DBE4ED" transform="translate(375,320)"/>
<path d="M0 0 C0.33 0.99 0.66 1.98 1 3 C-0.375 4.5 -0.375 4.5 -2 6 C-2.66 6 -3.32 6 -4 6 C-4.2784375 6.86625 -4.2784375 6.86625 -4.5625 7.75 C-6.70551122 11.10427843 -9.48822563 12.17907996 -13 14 C-11.43416404 9.96278439 -8.55826135 7.52929418 -5.375 4.75 C-4.859375 4.29109375 -4.34375 3.8321875 -3.8125 3.359375 C-2.5465398 2.23407704 -1.27392058 1.11627823 0 0 Z " fill="#DBE2E0" transform="translate(631,533)"/>
<path d="M0 0 C0.99 0.33 1.98 0.66 3 1 C0.525 5.455 0.525 5.455 -2 10 C-1.34 10 -0.68 10 0 10 C-0.66 11.32 -1.32 12.64 -2 14 C-2.99 14 -3.98 14 -5 14 C-4.28269264 10.76834156 -3.18684926 7.81292078 -1.9375 4.75 C-1.57527344 3.85796875 -1.21304688 2.9659375 -0.83984375 2.046875 C-0.56269531 1.37140625 -0.28554688 0.6959375 0 0 Z " fill="#D4DCE5" transform="translate(536,340)"/>
<path d="M0 0 C0.99 0.33 1.98 0.66 3 1 C2.57847656 1.58007812 2.15695312 2.16015625 1.72265625 2.7578125 C-2.53046009 8.81444492 -2.53046009 8.81444492 -4 16 C-6 13 -6 13 -6 9 C-5.34 9 -4.68 9 -4 9 C-3.896875 8.2575 -3.79375 7.515 -3.6875 6.75 C-2.95746496 3.82985982 -1.93210602 2.26812446 0 0 Z " fill="#EBEBE6" transform="translate(507,344)"/>
<path d="M0 0 C1.32 0 2.64 0 4 0 C4 0.66 4 1.32 4 2 C2.42578125 3.5078125 2.42578125 3.5078125 0.3125 5.125 C-0.37199219 5.66382813 -1.05648438 6.20265625 -1.76171875 6.7578125 C-4.37932659 8.21051633 -6.05175015 8.23751225 -9 8 C-6.11912454 5.59927045 -3.43595166 3.52708963 0 2 C0 1.34 0 0.68 0 0 Z " fill="#DDE5E5" transform="translate(456,399)"/>
<path d="M0 0 C0.33 0 0.66 0 1 0 C1.02692484 2.29160319 1.04636124 4.58329546 1.0625 6.875 C1.07410156 8.15117187 1.08570313 9.42734375 1.09765625 10.7421875 C1 14 1 14 0 16 C-3.95820859 15.43454163 -6.6659053 14.19097652 -10 12 C-7 11 -7 11 -5 11.9375 C-4.34 12.288125 -3.68 12.63875 -3 13 C-2.01 13 -1.02 13 0 13 C0 8.71 0 4.42 0 0 Z " fill="#E9F0F1" transform="translate(703,308)"/>
<path d="M0 0 C0.66 0 1.32 0 2 0 C1.35008857 3.50952175 0.11917763 6.12397322 -2 9 C-4.6875 10.3125 -4.6875 10.3125 -7 11 C-7.33 10.01 -7.66 9.02 -8 8 C-7.13375 7.690625 -7.13375 7.690625 -6.25 7.375 C-3.20666366 5.51518335 -1.92688574 2.95455813 0 0 Z " fill="#283438" transform="translate(694,462)"/>
<path d="M0 0 C0.99 0.99 1.98 1.98 3 3 C0.7629196 6.3556206 0.57482962 6.19278041 -3 7 C-3.33 7.66 -3.66 8.32 -4 9 C-4.66 9 -5.32 9 -6 9 C-4.68775452 5.06326356 -3.08089673 2.77280706 0 0 Z " fill="#DDE3E2" transform="translate(691,471)"/>
<path d="M0 0 C0.33 0.99 0.66 1.98 1 3 C-2.16363636 7.58181818 -2.16363636 7.58181818 -5 9 C-6.99960012 9.039992 -9.00047242 9.04346799 -11 9 C-10.67 8.34 -10.34 7.68 -10 7 C-8.35 7 -6.7 7 -5 7 C-4.67 6.01 -4.34 5.02 -4 4 C-2.70644173 2.62804426 -1.37701298 1.28817344 0 0 Z " fill="#F0F2F1" transform="translate(656,369)"/>
<path d="M0 0 C0.99 0.33 1.98 0.66 3 1 C9.08568662 1.23294845 9.08568662 1.23294845 15 0 C14 3 14 3 12 4 C9.95501575 3.91219597 7.91255052 3.75758462 5.875 3.5625 C4.77929688 3.46066406 3.68359375 3.35882812 2.5546875 3.25390625 C1.29011719 3.12822266 1.29011719 3.12822266 0 3 C0 2.01 0 1.02 0 0 Z " fill="#E3EBE7" transform="translate(268,629)"/>
<path d="M0 0 C0.33 0.66 0.66 1.32 1 2 C-0.89385437 2.50744423 -2.79018666 3.00564574 -4.6875 3.5 C-5.74324219 3.7784375 -6.79898437 4.056875 -7.88671875 4.34375 C-10.71142672 4.9391715 -13.12836708 5.12786492 -16 5 C-10.96992521 1.6466168 -5.94912287 0.71389474 0 0 Z " fill="#E7EDE8" transform="translate(409,484)"/>
<path d="M0 0 C0.33 0.99 0.66 1.98 1 3 C-0.49739583 4.20442708 -1.99479167 5.40885417 -3.4921875 6.61328125 C-5.25292107 8.12270545 -5.25292107 8.12270545 -7 11 C-7.66 11 -8.32 11 -9 11 C-7.59928507 5.70841026 -4.14512755 3.22521956 0 0 Z " fill="#D5DBDE" transform="translate(641,353)"/>
<path d="M0 0 C0.2475 0.53625 0.495 1.0725 0.75 1.625 C3.1799678 6.24193882 5.55163563 10.14033719 10 13 C8.02 13.99 8.02 13.99 6 15 C5.67 13.68 5.34 12.36 5 11 C4.34 11 3.68 11 3 11 C0.84694043 7.14243493 -0.39253254 4.44870215 0 0 Z " fill="#DEE4DE" transform="translate(475,701)"/>
<path d="M0 0 C0.99 0 1.98 0 3 0 C3 0.66 3 1.32 3 2 C3.66 2 4.32 2 5 2 C4.67 3.32 4.34 4.64 4 6 C1.03 5.505 1.03 5.505 -2 5 C-1.34 3.35 -0.68 1.7 0 0 Z " fill="#E2EAEE" transform="translate(697,462)"/>
<path d="M0 0 C0.66 0.33 1.32 0.66 2 1 C0.58994275 2.15395711 -0.82833458 3.29787466 -2.25 4.4375 C-3.43335938 5.39462891 -3.43335938 5.39462891 -4.640625 6.37109375 C-6.86247492 7.90505305 -8.36743482 8.57130246 -11 9 C-10.00269864 6.5067466 -9.34925469 5.22532561 -7.0625 3.75 C-5 3 -5 3 -2 3 C-2 2.34 -2 1.68 -2 1 C-1.34 0.67 -0.68 0.34 0 0 Z " fill="#E8ECE5" transform="translate(522,433)"/>
<path d="M0 0 C0.33 0 0.66 0 1 0 C1.45732667 5.71658336 0.52273754 8.48649253 -3 13 C-3.66 12.67 -4.32 12.34 -5 12 C-3.35 8.04 -1.7 4.08 0 0 Z " fill="#CFD6DD" transform="translate(730,408)"/>
<path d="M0 0 C1.23593891 3.70781672 0.5678132 4.67510253 -0.9375 8.1875 C-1.31777344 9.08855469 -1.69804687 9.98960937 -2.08984375 10.91796875 C-2.54037109 11.94857422 -2.54037109 11.94857422 -3 13 C-3.99 12.67 -4.98 12.34 -6 12 C-4.68 8.7 -3.36 5.4 -2 2 C-1.34 2 -0.68 2 0 2 C0 1.34 0 0.68 0 0 Z " fill="#E7E9E2" transform="translate(411,273)"/>
<path d="M0 0 C1.98 0.99 1.98 0.99 4 2 C4 2.66 4 3.32 4 4 C4.66 4 5.32 4 6 4 C6.92844389 8.33273814 6.92844389 11.66726186 6 16 C5.67 16 5.34 16 5 16 C4.96132813 15.11248047 4.96132813 15.11248047 4.921875 14.20703125 C4.53752258 8.85230322 3.79066885 6.03522813 0 2 C0 1.34 0 0.68 0 0 Z " fill="#141B1E" transform="translate(586,464)"/>
<path d="M0 0 C0.33 0.99 0.66 1.98 1 3 C0.00390625 4.82421875 0.00390625 4.82421875 -1.4375 6.6875 C-1.91058594 7.31011719 -2.38367188 7.93273437 -2.87109375 8.57421875 C-3.24363281 9.04472656 -3.61617188 9.51523437 -4 10 C-4.96956854 6.94813661 -5.1635271 6.33484121 -3.6875 3.3125 C-2 1 -2 1 0 0 Z " fill="#CFD7DB" transform="translate(445,509)"/>
<path d="M0 0 C0.66 0.33 1.32 0.66 2 1 C1.54177532 4.46941546 1.10868317 7.67395049 0 11 C0 10.34 0 9.68 0 9 C-1.32 8.34 -2.64 7.68 -4 7 C-2.68 4.69 -1.36 2.38 0 0 Z " fill="#DBE2E8" transform="translate(725,421)"/>
<path d="M0 0 C2.08268593 -0.08126087 4.16628658 -0.13930839 6.25 -0.1875 C7.99023438 -0.23970703 7.99023438 -0.23970703 9.765625 -0.29296875 C13.22268407 0.02017066 14.51565563 0.65709108 17 3 C16.67 3.66 16.34 4.32 16 5 C15.505 4.505 15.01 4.01 14.5 3.5 C10.38831174 1.03298704 6.09462131 1.58107574 1.5 2.5 C1.005 2.665 0.51 2.83 0 3 C0 2.01 0 1.02 0 0 Z " fill="#EDF0EE" transform="translate(491,213)"/>
<path d="M0 0 C0.66 0.33 1.32 0.66 2 1 C2.3125 3.25 2.3125 3.25 2 6 C-0.5 8.3125 -0.5 8.3125 -3 10 C-2.49287967 6.28111761 -1.88391785 3.26545761 0 0 Z " fill="#1A2D30" transform="translate(666,492)"/>
<path d="M0 0 C0.66 0.99 1.32 1.98 2 3 C-0.31 5.97 -2.62 8.94 -5 12 C-5.33 11.34 -5.66 10.68 -6 10 C-4.78515625 7.6171875 -4.78515625 7.6171875 -3.0625 4.875 C-2.21365234 3.50988281 -2.21365234 3.50988281 -1.34765625 2.1171875 C-0.90292969 1.41851562 -0.45820313 0.71984375 0 0 Z " fill="#DAE2EC" transform="translate(405,424)"/>
<path d="M0 0 C0.66 0.33 1.32 0.66 2 1 C-3.14285714 6.57142857 -3.14285714 6.57142857 -7 7 C-7.33 6.01 -7.66 5.02 -8 4 C-6.71349294 3.30289269 -5.42059335 2.61757124 -4.125 1.9375 C-3.40570312 1.55464844 -2.68640625 1.17179688 -1.9453125 0.77734375 C-1.30335938 0.52082031 -0.66140625 0.26429688 0 0 Z " fill="#DCE2DC" transform="translate(546,593)"/>
<path d="M0 0 C-2.83430453 3.2542015 -4.68607774 4.5206753 -9 5 C-8.00233891 2.50584728 -7.31383315 1.21259665 -5.0625 -0.3125 C-3 -1 -3 -1 0 0 Z " fill="#121316" transform="translate(266,580)"/>
<path d="M0 0 C0.68707555 2.49064888 1 4.37886292 1 7 C0.01 7 -0.98 7 -2 7 C-2.33 8.32 -2.66 9.64 -3 11 C-3.66 11 -4.32 11 -5 11 C-4.32902328 6.80639551 -2.1441606 3.59665648 0 0 Z " fill="#13161B" transform="translate(658,368)"/>
<path d="M0 0 C0.66 0 1.32 0 2 0 C1.32755582 3.81051702 0.43913922 7.40215196 -1 11 C-1.99 11.66 -2.98 12.32 -4 13 C-3.79503906 12.39671875 -3.59007812 11.7934375 -3.37890625 11.171875 C-2.97478516 9.97304688 -2.97478516 9.97304688 -2.5625 8.75 C-2.29566406 7.96109375 -2.02882813 7.1721875 -1.75390625 6.359375 C-1.08045292 4.25178012 -0.50849405 2.15246027 0 0 Z " fill="#E0E6EB" transform="translate(442,261)"/>
<path d="M0 0 C7.26153846 -0.49230769 7.26153846 -0.49230769 11 2 C11.66 2.66 12.32 3.32 13 4 C12.67 4.99 12.34 5.98 12 7 C11.319375 6.38125 10.63875 5.7625 9.9375 5.125 C6.54118766 2.6680932 4.03981179 1.95054395 0 1 C0 0.67 0 0.34 0 0 Z " fill="#EDEEEF" transform="translate(428,251)"/>
<path d="M0 0 C-1.4317616 0.69937202 -2.87067032 1.38412718 -4.3125 2.0625 C-5.51326172 2.63677734 -5.51326172 2.63677734 -6.73828125 3.22265625 C-9 4 -9 4 -12 3 C-8.45266434 -0.54733566 -4.72551531 -1.44220272 0 0 Z " fill="#E8ECE3" transform="translate(452,473)"/>
<path d="M0 0 C0.66 0 1.32 0 2 0 C5 6.625 5 6.625 5 10 C4.67 9.34 4.34 8.68 4 8 C3.01 8 2.02 8 1 8 C0.67 5.36 0.34 2.72 0 0 Z " fill="#11171E" transform="translate(594,416)"/>
<path d="M0 0 C0.66 0 1.32 0 2 0 C1.69381595 3.67420866 1.24228216 4.78135513 -1.5625 7.3125 C-2.366875 7.869375 -3.17125 8.42625 -4 9 C-2.25 2.25 -2.25 2.25 0 0 Z " fill="#ECEFEB" transform="translate(580,371)"/>
<path d="M0 0 C2.97 0 5.94 0 9 0 C9 0.33 9 0.66 9 1 C7.41701974 1.4803318 5.83360022 1.95921612 4.25 2.4375 C2.92742188 2.83775391 2.92742188 2.83775391 1.578125 3.24609375 C-0.60565835 3.88468494 -2.78835498 4.46775833 -5 5 C-5 4.01 -5 3.02 -5 2 C-3.35 2 -1.7 2 0 2 C0 1.34 0 0.68 0 0 Z " fill="#0B171F" transform="translate(642,350)"/>
<path d="M0 0 C0.33 0 0.66 0 1 0 C1 4.62 1 9.24 1 14 C0.34 14 -0.32 14 -1 14 C-1.33 14.66 -1.66 15.32 -2 16 C-1.34 10.72 -0.68 5.44 0 0 Z " fill="#0A1319" transform="translate(705,310)"/>
<path d="M0 0 C1.32 0 2.64 0 4 0 C2.55746343 3.36591866 0.66735273 5.51047079 -2 8 C-1.125 1.125 -1.125 1.125 0 0 Z " fill="#DEEBF3" transform="translate(500,245)"/>
<path d="M0 0 C1.65 0 3.3 0 5 0 C5 0.99 5 1.98 5 3 C6.2065625 3.433125 6.2065625 3.433125 7.4375 3.875 C10 5 10 5 11 7 C6.89188572 5.55007731 3.53144334 3.54592427 0 1 C0 0.67 0 0.34 0 0 Z " fill="#141A1C" transform="translate(327,630)"/>
<path d="M0 0 C-2 3 -2 3 -4.1640625 3.51171875 C-5.38222656 3.59873047 -5.38222656 3.59873047 -6.625 3.6875 C-7.44226563 3.75324219 -8.25953125 3.81898438 -9.1015625 3.88671875 C-9.72804688 3.92410156 -10.35453125 3.96148438 -11 4 C-10 2 -10 2 -7.75 0.875 C-4.98386705 -0.00513321 -2.87951649 -0.1645438 0 0 Z " fill="#DAE0D9" transform="translate(470,627)"/>
<path d="M0 0 C-5.14285714 4.42857143 -5.14285714 4.42857143 -9 5 C-9 3.68 -9 2.36 -9 1 C-5.8035914 -0.06546953 -3.34252724 -0.07427838 0 0 Z " fill="#22282A" transform="translate(659,583)"/>
<path d="M0 0 C0.33 0 0.66 0 1 0 C0.14285714 8.57142857 0.14285714 8.57142857 -2 12 C-3.15957207 8.52128379 -2.77456651 7.65780355 -1.5625 4.3125 C-1.13130859 3.10013672 -1.13130859 3.10013672 -0.69140625 1.86328125 C-0.46324219 1.24839844 -0.23507812 0.63351562 0 0 Z " fill="#DDE3E0" transform="translate(295,556)"/>
<path d="M0 0 C-1.49835228 4.66154042 -4.88463591 5.86610751 -9 8 C-7.47364599 4.11473526 -4.49771687 0 0 0 Z " fill="#D7DEDB" transform="translate(613,550)"/>
<path d="M0 0 C0.33 0 0.66 0 1 0 C1.25 2.25 1.25 2.25 1 5 C-0.875 7.3125 -0.875 7.3125 -3 9 C-3.66 9 -4.32 9 -5 9 C-3.50164236 5.88802644 -1.86022073 2.91164984 0 0 Z " fill="#F2F6F2" transform="translate(357,546)"/>
<path d="M0 0 C0 0.99 0 1.98 0 3 C-3.6441774 5.4294516 -5.71241272 5.16179575 -10 5 C-10 4.34 -10 3.68 -10 3 C-8.72125 2.87625 -7.4425 2.7525 -6.125 2.625 C-2.65209064 2.30957601 -2.65209064 2.30957601 0 0 Z " fill="#F2F5F2" transform="translate(476,543)"/>
<path d="M0 0 C1.33804687 0.04060547 1.33804687 0.04060547 2.703125 0.08203125 C3.37859375 0.11683594 4.0540625 0.15164063 4.75 0.1875 C1.63089144 1.98025866 -0.92682428 2.53040718 -4.5 2.8125 C-5.39203125 2.88726562 -6.2840625 2.96203125 -7.203125 3.0390625 C-7.87859375 3.08804687 -8.5540625 3.13703125 -9.25 3.1875 C-6.10408067 0.38704377 -4.182936 -0.16511589 0 0 Z " fill="#E6EBE4" transform="translate(387.25,488.8125)"/>
<path d="M0 0 C2 2 2 2 2.375 4.25 C1.87543369 7.91348624 0.18045292 10.07001639 -2 13 C-3 10 -3 10 -2.125 8.1875 C-1.75375 7.465625 -1.3825 6.74375 -1 6 C-0.61709538 4.00889599 -0.27395385 2.00899487 0 0 Z " fill="#E0E7E9" transform="translate(510,222)"/>
<path d="M0 0 C1.98 0.99 1.98 0.99 4 2 C4.1953125 8.0546875 4.1953125 8.0546875 4 10 C3.34 10.66 2.68 11.32 2 12 C1.34 8.04 0.68 4.08 0 0 Z " fill="#DDE1E3" transform="translate(628,607)"/>
<path d="M0 0 C2.475 0.495 2.475 0.495 5 1 C5 2.65 5 4.3 5 6 C4.01 6 3.02 6 2 6 C0 3 0 3 0 0 Z " fill="#D0D4D5" transform="translate(459,692)"/>
<path d="M0 0 C0.66 0.66 1.32 1.32 2 2 C0.29171079 4.10633718 -0.52148416 4.93801608 -3.26171875 5.29296875 C-4.06222656 5.25816406 -4.86273437 5.22335937 -5.6875 5.1875 C-6.49574219 5.16042969 -7.30398438 5.13335938 -8.13671875 5.10546875 C-8.75160156 5.07066406 -9.36648438 5.03585937 -10 5 C-10 4.67 -10 4.34 -10 4 C-6.7 3.34 -3.4 2.68 0 2 C0 1.34 0 0.68 0 0 Z " fill="#F2F5F4" transform="translate(534,515)"/>
<path d="M0 0 C0.99 0 1.98 0 3 0 C3 0.66 3 1.32 3 2 C-0.21451269 3.60725635 -3.43612536 3.05748185 -7 3 C-7.33 2.34 -7.66 1.68 -8 1 C-6.865625 1.020625 -5.73125 1.04125 -4.5625 1.0625 C-1.18424326 1.41577477 -1.18424326 1.41577477 0 0 Z " fill="#E8EDE8" transform="translate(630,438)"/>
<path d="M0 0 C0.99 0 1.98 0 3 0 C2.67 2.97 2.34 5.94 2 9 C1.34 9 0.68 9 0 9 C0 6.03 0 3.06 0 0 Z " fill="#EBEFEE" transform="translate(380,410)"/>
<path d="M0 0 C3.3 0 6.6 0 10 0 C6.99382731 3.00617269 4.17618402 2.59585316 0 3 C0 2.01 0 1.02 0 0 Z " fill="#D8DDE1" transform="translate(640,378)"/>
<path d="M0 0 C1 3 1 3 0.25 5.625 C-1 8 -1 8 -4 9 C-3.46930939 5.17902761 -2.50298434 2.93828597 0 0 Z " fill="#E2EBF6" transform="translate(437,275)"/>
<path d="M0 0 C0.99 0.66 1.98 1.32 3 2 C2.34 2 1.68 2 1 2 C0.7525 2.639375 0.505 3.27875 0.25 3.9375 C-1 6 -1 6 -5 7 C-3.35 4.69 -1.7 2.38 0 0 Z " fill="#DCE0DF" transform="translate(460,705)"/>
<path d="M0 0 C0.99 0 1.98 0 3 0 C1.60667426 3.36720387 0.0210714 4.9859524 -3 7 C-2.38722388 4.03824877 -1.74627478 2.61941217 0 0 Z " fill="#E3EBF1" transform="translate(287,622)"/>
<path d="M0 0 C1.9375 0.8125 1.9375 0.8125 4 2 C4.33 2.99 4.66 3.98 5 5 C3.02 5.33 1.04 5.66 -1 6 C-0.34 5.67 0.32 5.34 1 5 C0.67 3.35 0.34 1.7 0 0 Z " fill="#E3E5E5" transform="translate(263,573)"/>
<path d="M0 0 C0.99 0 1.98 0 3 0 C3 0.66 3 1.32 3 2 C-0.20269206 4.32923059 -3.44687712 6.26978364 -7 8 C-6.02133662 6.85373678 -5.04205413 5.70800212 -4.0625 4.5625 C-3.51722656 3.92441406 -2.97195313 3.28632813 -2.41015625 2.62890625 C-1.63204305 1.73008851 -0.84063472 0.84063472 0 0 Z " fill="#0D1719" transform="translate(548,413)"/>
<path d="M0 0 C3.63094642 2.64960955 5.89851796 5.01824456 8 9 C4.20620942 7.50958227 2.31656242 5.30937488 0 2 C0 1.34 0 0.68 0 0 Z " fill="#D9DDDF" transform="translate(372,361)"/>
<path d="M0 0 C2.0625 1.6875 2.0625 1.6875 4 4 C3.75 6.75 3.75 6.75 3 9 C0.87491756 5.81237635 0.4979837 3.73487777 0 0 Z " fill="#DCE0E1" transform="translate(534,310)"/>
<path d="M0 0 C0.99 0 1.98 0 3 0 C3.33 2.97 3.66 5.94 4 9 C0.68987756 5.68987756 0.49648935 4.46840411 0 0 Z " fill="#DEDFDD" transform="translate(472,272)"/>
<path d="M0 0 C0.78375 0.185625 1.5675 0.37125 2.375 0.5625 C4.97089775 1.25962266 4.97089775 1.25962266 7 0 C7 1.65 7 3.3 7 5 C3.34683329 3.75023244 2.21934164 3.32901247 0 0 Z " fill="#EEF2F6" transform="translate(286,560)"/>
<path d="M0 0 C1.485 0.99 1.485 0.99 3 2 C3.1875 5.625 3.1875 5.625 3 9 C2.34 9 1.68 9 1 9 C0.67 6.03 0.34 3.06 0 0 Z " fill="#0F161F" transform="translate(479,531)"/>
<path d="M0 0 C0.66 0 1.32 0 2 0 C0.60667426 3.36720387 -0.9789286 4.9859524 -4 7 C-4.66 6.67 -5.32 6.34 -6 6 C-5.38125 5.7525 -4.7625 5.505 -4.125 5.25 C-1.64931313 3.79371361 -1.04874998 2.62187494 0 0 Z " fill="#E7EBE6" transform="translate(531,425)"/>
<path d="M0 0 C4 0 4 0 5.75 1.3125 C7 3 7 3 7 6 C3.63279613 4.60667426 2.0140476 3.0210714 0 0 Z " fill="#E0E2E6" transform="translate(384,373)"/>
<path d="M0 0 C1.32 0.33 2.64 0.66 4 1 C2 3 0 5 -2 7 C-2.33 6.34 -2.66 5.68 -3 5 C-1.5625 2.375 -1.5625 2.375 0 0 Z " fill="#0C1215" transform="translate(710,289)"/>
<path d="M0 0 C1 3 1 3 -0.25 5.625 C-2 8 -2 8 -5 9 C-5.33 8.34 -5.66 7.68 -6 7 C-5.195625 6.21625 -4.39125 5.4325 -3.5625 4.625 C-1.01309583 2.28017144 -1.01309583 2.28017144 0 0 Z " fill="#17232C" transform="translate(422,259)"/>
<path d="M0 0 C0.99 0 1.98 0 3 0 C3 0.66 3 1.32 3 2 C3.66 2.33 4.32 2.66 5 3 C5.625 5.5625 5.625 5.5625 6 8 C1.125 3.375 1.125 3.375 0 0 Z " fill="#D8DDE3" transform="translate(621,690)"/>
<path d="M0 0 C0.66 0.33 1.32 0.66 2 1 C-0.75 6.75 -0.75 6.75 -3 9 C-2.25 2.25 -2.25 2.25 0 0 Z " fill="#121617" transform="translate(305,534)"/>
<path d="M0 0 C0.66 0.33 1.32 0.66 2 1 C1.34 2.65 0.68 4.3 0 6 C-0.99 5.67 -1.98 5.34 -3 5 C-2.01 3.35 -1.02 1.7 0 0 Z " fill="#161A19" transform="translate(311,525)"/>
<path d="M0 0 C0.99 0.99 1.98 1.98 3 3 C1.68 4.32 0.36 5.64 -1 7 C-1 3 -1 3 0 0 Z " fill="#253235" transform="translate(680,478)"/>
<path d="M0 0 C2.62187494 1.04874998 3.79371361 1.64931313 5.25 4.125 C5.4975 4.74375 5.745 5.3625 6 6 C3.69 5.01 1.38 4.02 -1 3 C-0.67 2.01 -0.34 1.02 0 0 Z " fill="#DEDFE0" transform="translate(437,348)"/>
<path d="M0 0 C2.8125 -0.1875 2.8125 -0.1875 6 0 C6.99 0.99 7.98 1.98 9 3 C6.03 2.67 3.06 2.34 0 2 C0 1.34 0 0.68 0 0 Z " fill="#E8EDEB" transform="translate(674,312)"/>
</svg>
