<?xml version="1.0" encoding="iso-8859-1"?>
<!-- Uploaded to: SVG Repo, www.svgrepo.com, Generator: SVG Repo Mixer Tools -->
<svg fill="#000000" height="800px" width="800px" version="1.1" id="Capa_1" xmlns="http://www.w3.org/2000/svg" xmlns:xlink="http://www.w3.org/1999/xlink" 
	 viewBox="0 0 470 470" xml:space="preserve">
<g>
	<path d="M426.435,44.399l19.981-33.016c1.402-2.315,1.447-5.207,0.117-7.565C445.204,1.459,442.707,0,440,0
		c-7.318,0-11.376,3.245-14.061,5.394c-1.971,1.575-2.634,2.106-4.691,2.106c-2.057,0-2.72-0.531-4.689-2.106
		C413.873,3.246,409.816,0,402.497,0c-7.318,0-11.376,3.246-14.061,5.394c-1.969,1.576-2.633,2.106-4.688,2.106
		s-2.72-0.53-4.688-2.106C376.375,3.246,372.318,0,365,0c-2.707,0-5.204,1.459-6.533,3.817c-1.33,2.358-1.285,5.25,0.117,7.565
		l19.981,33.016C353.128,54.08,335,78.707,335,107.5C335,232.944,232.944,335,107.5,335c-28.793,0-53.42,18.128-63.101,43.565
		l-33.016-19.981c-2.316-1.402-5.209-1.447-7.565-0.117C1.459,359.796,0,362.293,0,365c0,7.318,3.245,11.376,5.394,14.061
		c1.575,1.971,2.106,2.634,2.106,4.691c0,2.057-0.531,2.72-2.106,4.689C3.246,391.127,0,395.184,0,402.503
		c0,7.318,3.246,11.376,5.394,14.061c1.576,1.969,2.106,2.633,2.106,4.688s-0.53,2.72-2.106,4.688C3.246,428.625,0,432.682,0,440
		c0,2.707,1.459,5.204,3.817,6.533c1.145,0.646,2.414,0.967,3.683,0.967c1.346,0,2.691-0.362,3.883-1.084l33.016-19.981
		C54.08,451.872,78.707,470,107.5,470c48.907,0,96.387-9.594,141.122-28.515c43.176-18.263,81.936-44.391,115.203-77.659
		c33.27-33.269,59.397-72.028,77.66-115.204C460.406,203.887,470,156.407,470,107.5C470,78.707,451.872,54.08,426.435,44.399z
		 M382.834,22.482c0.299,0.012,0.604,0.018,0.914,0.018c7.317,0,11.375-3.246,14.06-5.394c1.97-1.575,2.633-2.106,4.689-2.106
		c2.058,0,2.721,0.531,4.691,2.106c2.685,2.148,6.741,5.394,14.06,5.394c0.312,0,0.618-0.006,0.918-0.018l-10.953,18.099
		C408.358,40.211,405.454,40,402.5,40s-5.858,0.211-8.713,0.581L382.834,22.482z M22.482,422.166
		c0.012-0.299,0.018-0.604,0.018-0.914c0-7.317-3.246-11.375-5.394-14.06c-1.575-1.97-2.106-2.633-2.106-4.689
		c0-2.058,0.531-2.721,2.106-4.691c2.148-2.685,5.394-6.741,5.394-14.06c0-0.312-0.006-0.618-0.018-0.918l18.099,10.953
		C40.211,396.642,40,399.546,40,402.5s0.211,5.858,0.581,8.713L22.482,422.166z M427.671,242.778
		c-17.507,41.388-42.556,78.546-74.452,110.44c-31.895,31.896-69.053,56.945-110.44,74.452C199.903,445.805,154.389,455,107.5,455
		C78.552,455,55,431.448,55,402.5S78.552,350,107.5,350C241.215,350,350,241.215,350,107.5c0-28.948,23.552-52.5,52.5-52.5
		S455,78.552,455,107.5C455,154.389,445.805,199.903,427.671,242.778z"/>
	<path d="M423.5,115.5c-4.135,0-7.5,3.365-7.5,7.5s3.365,7.5,7.5,7.5s7.5-3.365,7.5-7.5S427.635,115.5,423.5,115.5z"/>
	<path d="M93,395c-4.135,0-7.5,3.365-7.5,7.5s3.365,7.5,7.5,7.5s7.5-3.365,7.5-7.5S97.135,395,93,395z"/>
	<path d="M123,416c-4.135,0-7.5,3.365-7.5,7.5s3.365,7.5,7.5,7.5s7.5-3.365,7.5-7.5S127.135,416,123,416z"/>
</g>
</svg>